#!OML:ASF H:\Male1\Project 1\Capture day 1\Session 1\Male1.ASF
:FULLY-SPECIFIED
:DEGREES
269
root 42.6628 13.9686 3.11282 547.141 59.2478 559.853
lowerback 19.7844 0.568186 -0.863655
upperback 11.0921 1.84765 -1.78092
thorax 0.955771 1.47859 -1.72813
lowerneck -7.64095 7.18592 7.70179
upperneck -2.22669 9.17728 -10.867
head 1.45488 4.45309 -4.12564
rclavicle -3.4191e-014 -2.70347e-014
rhumerus -50.8023 18.8826 -95.2617
rradius 100.058
rwrist -25.6273
rhand -37.3032 13.3883
rfingers 7.12502
rthumb -10.3671 -16.3361
lclavicle -3.4191e-014 -2.70347e-014
lhumerus -49.2687 -4.69977 84.0024
lradius 96.5144
lwrist 26.4417
lhand -33.3096 11.0771
lfingers 7.12502
lthumb -6.51315 40.957
rfemur -33.8248 11.7504 23.1689
rtibia 56.0063
rfoot -12.2223 -6.63377
rtoes -45.4433
lfemur -29.2299 -12.255 -14.093
ltibia 64.5007
lfoot -22.0358 12.0578
ltoes 2.90917
270
root 42.9336 13.954 3.14409 547.666 57.9171 559.57
lowerback 19.4005 0.443005 -0.770711
upperback 11.0571 1.69773 -1.63793
thorax 1.10299 1.398 -1.59021
lowerneck -6.47089 7.91176 8.9209
upperneck -3.43533 10.0958 -12.577
head 1.16162 4.94919 -4.84051
rclavicle 1.59028e-014 -4.29375e-014
rhumerus -50.6838 18.435 -95.5389
rradius 99.8461
rwrist -25.4517
rhand -37.4036 13.2889
rfingers 7.12502
rthumb -10.464 -16.4307
lclavicle 1.59028e-014 -4.29375e-014
lhumerus -48.9657 -4.10861 84.057
lradius 96.5727
lwrist 26.718
lhand -33.6208 11.1778
lfingers 7.12502
lthumb -6.81355 41.0482
rfemur -33.6238 15.6302 21.4478
rtibia 51.0657
rfoot -12.7742 -5.03817
rtoes -47.5202
lfemur -29.8226 -13.4516 -13.3805
ltibia 65.346
lfoot -23.2397 12.0552
ltoes 2.50297
271
root 43.1976 13.9261 3.17798 548.482 56.4732 559.888
lowerback 19.1615 0.299871 -0.249002
upperback 11.0414 1.59767 -1.42805
thorax 1.20625 1.36433 -1.63804
lowerneck -5.13953 8.63365 10.2182
upperneck -4.61341 11.0271 -14.2844
head 0.889065 5.46769 -5.57999
rclavicle -6.36111e-014 2.22639e-014
rhumerus -50.6378 17.9754 -95.819
rradius 99.7306
rwrist -25.0664
rhand -37.4063 13.3653
rfingers 7.12502
rthumb -10.4666 -16.3541
lclavicle -6.36111e-014 2.22639e-014
lhumerus -48.7559 -3.71746 84.1272
lradius 96.8118
lwrist 27.0483
lhand -33.8479 11.0634
lfingers 7.12502
lthumb -7.03279 40.9266
rfemur -33.1039 19.0975 20.3868
rtibia 46.9835
rfoot -13.0157 -4.35171
rtoes -48.594
lfemur -30.3583 -14.5723 -12.2735
ltibia 66.3611
lfoot -24.4835 11.9295
ltoes 1.74814
272
root 43.4519 13.8905 3.21528 549.29 54.8551 560.68
lowerback 19.2386 0.114391 0.709675
upperback 11.081 1.53179 -1.15942
thorax 1.21877 1.37707 -1.88521
lowerneck -3.7903 9.35649 11.5689
upperneck -5.63955 11.9879 -15.9683
head 0.696463 6.009 -6.32401
rclavicle 2.46493e-014 -2.22639e-014
rhumerus -50.6712 17.473 -96.1061
rradius 99.7343
rwrist -24.6021
rhand -37.3555 13.512
rfingers 7.12502
rthumb -10.4175 -16.2099
lclavicle 2.46493e-014 -2.22639e-014
lhumerus -48.617 -3.61969 84.219
lradius 97.1749
lwrist 27.3694
lhand -34.017 10.86
lfingers 7.12502
lthumb -7.19602 40.7177
rfemur -32.0855 21.53 20.3132
rtibia 44.058
rfoot -13.1362 -4.36769
rtoes -47.7814
lfemur -30.6154 -15.7036 -10.8537
ltibia 67.4209
lfoot -25.6664 11.7108
ltoes 0.59662
273
root 43.6929 13.8565 3.25445 550.08 53.1347 561.964
lowerback 19.6841 -0.110147 2.1307
upperback 11.1622 1.52458 -0.831374
thorax 1.10512 1.44995 -2.3509
lowerneck -2.51631 10.0843 12.8989
upperneck -6.46448 12.9901 -17.5767
head 0.607178 6.57336 -7.03525
rclavicle 1.19271e-014 -2.38542e-014
rhumerus -50.7663 16.9491 -96.4069
rradius 99.839
rwrist -24.1848
rhand -37.2936 13.6224
rfingers 7.12502
rthumb -10.3579 -16.1025
lclavicle 1.19271e-014 -2.38542e-014
lhumerus -48.5553 -3.81815 84.3284
lradius 97.5759
lwrist 27.5898
lhand -34.1572 10.7366
lfingers 7.12502
lthumb -7.33127 40.5896
rfemur -30.6132 22.5028 21.4767
rtibia 42.277
rfoot -13.2194 -4.57086
rtoes -45.5498
lfemur -30.5121 -16.8306 -9.11586
ltibia 68.4019
lfoot -26.7432 11.4009
ltoes -0.777948
274
root 43.9234 13.8333 3.29602 550.5 51.3575 563.251
lowerback 20.4257 -0.35979 3.65552
upperback 11.2864 1.55721 -0.492561
thorax 0.902972 1.55774 -2.87862
lowerneck -1.36468 10.8247 14.1298
upperneck -7.11835 14.0409 -19.0538
head 0.610347 7.16153 -7.67673
rclavicle 1.74931e-014 -2.54444e-014
rhumerus -50.8734 16.4762 -96.7116
rradius 99.9871
rwrist -23.8596
rhand -37.251 13.6389
rfingers 7.12502
rthumb -10.3168 -16.088
lclavicle 1.74931e-014 -2.54444e-014
lhumerus -48.5526 -4.23621 84.4512
lradius 97.9251
lwrist 27.655
lhand -34.3889 10.9478
lfingers 7.12502
lthumb -7.55496 40.7929
rfemur -28.8681 22.0558 23.4133
rtibia 41.4227
rfoot -13.4247 -4.78708
rtoes -43.4041
lfemur -30.0077 -18.0448 -7.38208
ltibia 69.1558
lfoot -27.6718 11.0569
ltoes -2.17097
275
root 44.1417 13.8202 3.33747 550.812 49.7537 564.57
lowerback 21.2861 -0.559525 5.20515
upperback 11.4015 1.70637 -0.159703
thorax 0.655 1.7275 -3.45309
lowerneck -0.312501 11.5654 15.2521
upperneck -7.69547 15.1146 -20.4209
head 0.669485 7.76294 -8.25464
rclavicle -1.51076e-014 5.08889e-014
rhumerus -50.9319 16.1077 -96.9938
rradius 100.109
rwrist -23.5845
rhand -37.2278 13.5666
rfingers 7.12502
rthumb -10.2944 -16.1614
lclavicle -1.51076e-014 5.08889e-014
lhumerus -48.6068 -4.76083 84.579
lradius 98.2033
lwrist 27.5764
lhand -34.39 11.3249
lfingers 7.12502
lthumb -7.55605 41.1699
rfemur -27.2181 20.7087 25.6825
rtibia 41.0808
rfoot -13.7476 -4.83029
rtoes -41.1983
lfemur -29.3068 -19.1644 -5.64632
ltibia 69.6832
lfoot -28.4705 10.6942
ltoes -3.31939
276
root 44.3536 13.8234 3.37961 550.85 48.2101 565.51
lowerback 22.0584 -0.716164 6.45936
upperback 11.5081 1.8823 0.130558
thorax 0.448571 1.89794 -3.90974
lowerneck 0.696206 12.2916 16.2513
upperneck -8.30761 16.1805 -21.6679
head 0.732118 8.36634 -8.77111
rclavicle -4.69132e-014 1.59028e-014
rhumerus -50.9046 15.8947 -97.2457
rradius 100.147
rwrist -23.2829
rhand -37.2002 13.4551
rfingers 7.12502
rthumb -10.2678 -16.2743
lclavicle -4.69132e-014 1.59028e-014
lhumerus -48.7015 -5.28473 84.7051
lradius 98.3722
lwrist 27.4049
lhand -34.334 11.6911
lfingers 7.12502
lthumb -7.502 41.538
rfemur -25.8026 18.8375 27.7372
rtibia 40.9196
rfoot -14.0295 -4.99138
rtoes -41.0615
lfemur -28.5672 -20.3376 -4.1462
ltibia 69.9431
lfoot -29.1061 10.3555
ltoes -4.20414
277
root 44.5572 13.8403 3.42135 551.283 46.7596 566.816
lowerback 22.6934 -0.832319 7.85222
upperback 11.571 2.14703 0.486989
thorax 0.289231 2.11281 -4.38874
lowerneck 1.68723 12.9773 17.0947
upperneck -9.01279 17.1916 -22.7637
head 0.757062 8.95021 -9.22056
rclavicle 2.78299e-014 7.95139e-015
rhumerus -50.7892 15.8292 -97.4463
rradius 100.088
rwrist -22.9162
rhand -37.149 13.3704
rfingers 7.12502
rthumb -10.2184 -16.3614
lclavicle 2.78299e-014 7.95139e-015
lhumerus -48.8209 -5.76167 84.8315
lradius 98.4321
lwrist 27.2171
lhand -34.1311 12.0736
lfingers 7.12502
lthumb -7.30615 41.9274
rfemur -24.6413 16.9845 29.9447
rtibia 40.6303
rfoot -14.0216 -5.4081
rtoes -43.1696
lfemur -27.9511 -21.326 -2.29447
ltibia 70.0471
lfoot -29.6263 9.9271
ltoes -4.84556
278
root 44.7531 13.8673 3.46343 551.896 45.3911 568.197
lowerback 23.1847 -0.882942 9.20979
upperback 11.5885 2.49092 0.864127
thorax 0.173264 2.35965 -4.83721
lowerneck 2.64271 13.6039 17.7828
upperneck -9.79252 18.1142 -23.6994
head 0.737437 9.49494 -9.60416
rclavicle -1.11319e-014 -3.02153e-014
rhumerus -50.6171 15.8639 -97.592
rradius 99.9567
rwrist -22.5219
rhand -37.0664 13.3599
rfingers 7.12502
rthumb -10.1387 -16.3758
lclavicle -1.11319e-014 -3.02153e-014
lhumerus -48.9507 -6.18728 84.9607
lradius 98.4068
lwrist 27.0632
lhand -33.7344 12.3617
lfingers 7.12502
lthumb -6.92318 42.2285
rfemur -23.6262 15.363 32.1179
rtibia 40.1129
rfoot -13.7297 -5.93134
rtoes -46.1975
lfemur -27.5014 -22.1392 -0.288324
ltibia 70.0347
lfoot -30.0387 9.42681
ltoes -5.2795
279
root 44.9403 13.9043 3.50562 552.9 43.9305 569.989
lowerback 23.5606 -0.947792 10.8489
upperback 11.5455 2.88151 1.32413
thorax 0.0847539 2.63469 -5.358
lowerneck 3.54549 14.1713 18.3418
upperneck -10.6057 18.9462 -24.5049
head 0.686115 9.99646 -9.93459
rclavicle 5.40694e-014 -4.13472e-014
rhumerus -50.4394 15.9543 -97.6966
rradius 99.8075
rwrist -22.1779
rhand -36.955 13.4329
rfingers 7.12502
rthumb -10.0312 -16.3081
lclavicle 5.40694e-014 -4.13472e-014
lhumerus -49.0985 -6.59751 85.0925
lradius 98.351
lwrist 26.9735
lhand -33.2807 12.5402
lfingers 7.12502
lthumb -6.48516 42.4209
rfemur -22.6863 13.9934 34.5922
rtibia 39.3274
rfoot -13.2389 -6.47242
rtoes -48.9993
lfemur -27.2992 -22.7539 2.21048
ltibia 69.9742
lfoot -30.3536 8.77515
ltoes -5.55119
280
root 45.119 13.9414 3.54963 553.896 42.325 571.753
lowerback 23.8819 -1.03364 12.5569
upperback 11.4543 3.27516 1.79183
thorax -0.00578526 2.90901 -5.90259
lowerneck 4.31574 14.6685 18.7796
upperneck -11.3685 19.668 -25.1623
head 0.628096 10.4363 -10.2009
rclavicle 4.29375e-014 -6.36111e-015
rhumerus -50.2959 16.036 -97.7766
rradius 99.6953
rwrist -21.9484
rhand -36.8296 13.5564
rfingers 7.12502
rthumb -9.91029 -16.1904
lclavicle 4.29375e-014 -6.36111e-015
lhumerus -49.2563 -7.0139 85.2207
lradius 98.3027
lwrist 26.9267
lhand -32.8307 12.6845
lfingers 7.12502
lthumb -6.05079 42.5781
rfemur -21.7553 12.8951 37.067
rtibia 38.4254
rfoot -12.9542 -7.078
rtoes -50.3979
lfemur -27.3492 -23.2467 4.8632
ltibia 69.864
lfoot -30.5144 8.0414
ltoes -5.70254
281
root 45.2871 13.9809 3.59095 554.782 40.6209 573.13
lowerback 23.9749 -1.09267 14.1852
upperback 11.2887 3.64794 2.17043
thorax -0.0528793 3.15984 -6.47923
lowerneck 4.9437 15.0638 19.0919
upperneck -12.0549 20.2346 -25.6641
head 0.555314 10.789 -10.4065
rclavicle -6.04305e-014 3.18055e-015
rhumerus -50.2095 16.0621 -97.855
rradius 99.6555
rwrist -21.8549
rhand -36.7197 13.6841
rfingers 7.12502
rthumb -9.8042 -16.0676
lclavicle -6.04305e-014 3.18055e-015
lhumerus -49.4369 -7.39914 85.3203
lradius 98.2394
lwrist 26.8443
lhand -32.3807 12.732
lfingers 7.12502
lthumb -5.61633 42.6375
rfemur -21.0799 12.0018 39.2349
rtibia 37.5677
rfoot -12.8365 -7.83725
rtoes -50.8848
lfemur -27.7661 -23.5861 7.36379
ltibia 69.6657
lfoot -30.4958 7.38169
ltoes -5.80817
282
root 45.4472 14.0362 3.62689 555.071 38.8397 573.257
lowerback 23.6485 -1.06112 15.1393
upperback 11.0872 3.8697 2.31218
thorax 0.00392691 3.30017 -6.88417
lowerneck 5.43514 15.3594 19.2661
upperneck -12.6646 20.6466 -26.0042
head 0.459674 11.0541 -10.5503
rclavicle -7.39479e-014 6.20208e-014
rhumerus -50.1768 16.0707 -97.9339
rradius 99.6947
rwrist -21.8724
rhand -36.659 13.7894
rfingers 7.12502
rthumb -9.74564 -15.9651
lclavicle -7.39479e-014 6.20208e-014
lhumerus -49.6362 -7.66159 85.3774
lradius 98.1479
lwrist 26.6711
lhand -32.1803 12.7576
lfingers 7.12502
lthumb -5.42283 42.6682
rfemur -20.9053 11.2028 40.376
rtibia 37.0242
rfoot -12.8655 -8.74741
rtoes -50.9631
lfemur -28.4984 -23.9924 8.91131
ltibia 69.2082
lfoot -30.2517 7.04645
ltoes -5.85664
283
root 45.598 14.1016 3.65644 554.941 37.1971 572.298
lowerback 22.9697 -0.860759 15.3656
upperback 10.8582 4.02604 2.20932
thorax 0.146876 3.36976 -7.12269
lowerneck 5.79933 15.558 19.344
upperneck -13.1836 20.9127 -26.2232
head 0.352397 11.2357 -10.6505
rclavicle 2.54444e-014 1.27222e-014
rhumerus -50.1704 16.0752 -98.0057
rradius 99.7959
rwrist -21.9453
rhand -36.6578 13.8739
rfingers 7.12502
rthumb -9.74446 -15.8806
lclavicle 2.54444e-014 1.27222e-014
lhumerus -49.8477 -7.7836 85.3758
lradius 98.0419
lwrist 26.4432
lhand -31.9441 12.6949
lfingers 7.12502
lthumb -5.1948 42.6112
rfemur -21.2268 10.6376 40.5173
rtibia 36.8272
rfoot -13.0018 -9.75427
rtoes -50.712
lfemur -29.4243 -24.2999 9.46732
ltibia 68.5184
lfoot -29.8448 7.01959
ltoes -5.64477
